<svg id="Capa_1" data-name="Capa 1" xmlns="http://www.w3.org/2000/svg" xmlns:xlink="http://www.w3.org/1999/xlink" viewBox="0 0 792 612"><defs><style>.cls-1{fill:#ed2300;stroke:#ed2300;stroke-miterlimit:10;}.cls-2{fill:url(#Degradado_sin_nombre_12);}.cls-3{fill:url(#Degradado_sin_nombre_12-2);}.cls-4{fill:url(#Degradado_sin_nombre_12-3);}.cls-5{fill:url(#Degradado_sin_nombre_12-4);}.cls-6{fill:url(#Degradado_sin_nombre_12-5);}.cls-7{fill:url(#Degradado_sin_nombre_12-6);}.cls-8{fill:url(#Degradado_sin_nombre_12-7);}.cls-9{fill:url(#Degradado_sin_nombre_12-8);}.cls-10{fill:url(#Degradado_sin_nombre_12-9);}.cls-11{fill:url(#Degradado_sin_nombre_12-10);}.cls-12{fill:url(#Degradado_sin_nombre_12-11);}.cls-13{fill:url(#Degradado_sin_nombre_12-12);}.cls-14{fill:url(#Degradado_sin_nombre_12-13);}.cls-15{fill:url(#Degradado_sin_nombre_12-14);}.cls-16{fill:url(#Degradado_sin_nombre_12-15);}.cls-17{fill:url(#Degradado_sin_nombre_12-16);}.cls-18{fill:url(#Degradado_sin_nombre_12-17);}.cls-19{fill:url(#Degradado_sin_nombre_12-18);}.cls-20{fill:url(#Degradado_sin_nombre_12-19);}.cls-21{fill:url(#Degradado_sin_nombre_12-20);}.cls-22{fill:url(#Degradado_sin_nombre_12-21);}.cls-23{fill:url(#Degradado_sin_nombre_12-22);}.cls-24{fill:url(#Degradado_sin_nombre_12-23);}.cls-25{fill:url(#Degradado_sin_nombre_12-24);}.cls-26{fill:url(#Degradado_sin_nombre_12-25);}.cls-27{fill:url(#Degradado_sin_nombre_12-26);}.cls-28{fill:url(#Degradado_sin_nombre_12-27);}.cls-29{fill:url(#Degradado_sin_nombre_12-28);}.cls-30{fill:url(#Degradado_sin_nombre_12-29);}.cls-31{fill:url(#Degradado_sin_nombre_12-30);}.cls-32{fill:url(#Degradado_sin_nombre_12-31);}.cls-33{fill:url(#Degradado_sin_nombre_12-32);}.cls-34{fill:url(#Degradado_sin_nombre_12-33);}.cls-35{fill:url(#Degradado_sin_nombre_12-34);}.cls-36{fill:url(#Degradado_sin_nombre_12-35);}.cls-37{fill:url(#Degradado_sin_nombre_12-36);}.cls-38{fill:url(#Degradado_sin_nombre_12-37);}.cls-39{fill:url(#Degradado_sin_nombre_12-38);}.cls-40{fill:url(#Degradado_sin_nombre_12-39);}</style><linearGradient id="Degradado_sin_nombre_12" x1="64.7" y1="240.49" x2="722.84" y2="240.49" gradientUnits="userSpaceOnUse"><stop offset="0" stop-color="#ffca00"/><stop offset="1" stop-color="#ed2300"/></linearGradient><linearGradient id="Degradado_sin_nombre_12-2" x1="189.4" y1="247.91" x2="195.8" y2="247.91" xlink:href="#Degradado_sin_nombre_12"/><linearGradient id="Degradado_sin_nombre_12-3" x1="203.38" y1="250.03" x2="209.77" y2="250.03" xlink:href="#Degradado_sin_nombre_12"/><linearGradient id="Degradado_sin_nombre_12-4" x1="216.77" y1="244.32" x2="223.17" y2="244.32" xlink:href="#Degradado_sin_nombre_12"/><linearGradient id="Degradado_sin_nombre_12-5" x1="229.5" y1="244.37" x2="235.88" y2="244.37" xlink:href="#Degradado_sin_nombre_12"/><linearGradient id="Degradado_sin_nombre_12-6" x1="242.21" y1="244.32" x2="248.61" y2="244.32" xlink:href="#Degradado_sin_nombre_12"/><linearGradient id="Degradado_sin_nombre_12-7" x1="255" y1="244.31" x2="261.38" y2="244.31" xlink:href="#Degradado_sin_nombre_12"/><linearGradient id="Degradado_sin_nombre_12-8" x1="267.75" y1="244.31" x2="274.08" y2="244.31" xlink:href="#Degradado_sin_nombre_12"/><linearGradient id="Degradado_sin_nombre_12-9" x1="281.81" y1="244.32" x2="288.19" y2="244.32" xlink:href="#Degradado_sin_nombre_12"/><linearGradient id="Degradado_sin_nombre_12-10" x1="294.48" y1="244.32" x2="300.86" y2="244.32" xlink:href="#Degradado_sin_nombre_12"/><linearGradient id="Degradado_sin_nombre_12-11" x1="307.19" y1="244.31" x2="313.58" y2="244.31" xlink:href="#Degradado_sin_nombre_12"/><linearGradient id="Degradado_sin_nombre_12-12" x1="319.98" y1="244.29" x2="326.36" y2="244.29" xlink:href="#Degradado_sin_nombre_12"/><linearGradient id="Degradado_sin_nombre_12-13" x1="332.73" y1="244.3" x2="339.06" y2="244.3" xlink:href="#Degradado_sin_nombre_12"/><linearGradient id="Degradado_sin_nombre_12-14" x1="345.39" y1="244.27" x2="351.77" y2="244.27" xlink:href="#Degradado_sin_nombre_12"/><linearGradient id="Degradado_sin_nombre_12-15" x1="358.09" y1="244.3" x2="364.46" y2="244.3" xlink:href="#Degradado_sin_nombre_12"/><linearGradient id="Degradado_sin_nombre_12-16" x1="370.83" y1="244.29" x2="377.2" y2="244.29" xlink:href="#Degradado_sin_nombre_12"/><linearGradient id="Degradado_sin_nombre_12-17" x1="383.57" y1="244.31" x2="389.94" y2="244.31" xlink:href="#Degradado_sin_nombre_12"/><linearGradient id="Degradado_sin_nombre_12-18" x1="396.27" y1="244.28" x2="402.65" y2="244.28" xlink:href="#Degradado_sin_nombre_12"/><linearGradient id="Degradado_sin_nombre_12-19" x1="408.94" y1="244.26" x2="415.31" y2="244.26" xlink:href="#Degradado_sin_nombre_12"/><linearGradient id="Degradado_sin_nombre_12-20" x1="421.68" y1="244.29" x2="428.07" y2="244.29" xlink:href="#Degradado_sin_nombre_12"/><linearGradient id="Degradado_sin_nombre_12-21" x1="434.4" y1="244.31" x2="440.78" y2="244.31" xlink:href="#Degradado_sin_nombre_12"/><linearGradient id="Degradado_sin_nombre_12-22" x1="447.13" y1="244.3" x2="453.5" y2="244.3" xlink:href="#Degradado_sin_nombre_12"/><linearGradient id="Degradado_sin_nombre_12-23" x1="459.79" y1="244.31" x2="466.18" y2="244.31" xlink:href="#Degradado_sin_nombre_12"/><linearGradient id="Degradado_sin_nombre_12-24" x1="472.51" y1="244.29" x2="478.9" y2="244.29" xlink:href="#Degradado_sin_nombre_12"/><linearGradient id="Degradado_sin_nombre_12-25" x1="485.18" y1="244.32" x2="491.56" y2="244.32" xlink:href="#Degradado_sin_nombre_12"/><linearGradient id="Degradado_sin_nombre_12-26" x1="497.89" y1="244.31" x2="504.29" y2="244.31" xlink:href="#Degradado_sin_nombre_12"/><linearGradient id="Degradado_sin_nombre_12-27" x1="510.62" y1="244.31" x2="517.01" y2="244.31" xlink:href="#Degradado_sin_nombre_12"/><linearGradient id="Degradado_sin_nombre_12-28" x1="523.34" y1="244.31" x2="529.72" y2="244.31" xlink:href="#Degradado_sin_nombre_12"/><linearGradient id="Degradado_sin_nombre_12-29" x1="536.06" y1="244.29" x2="542.44" y2="244.29" xlink:href="#Degradado_sin_nombre_12"/><linearGradient id="Degradado_sin_nombre_12-30" x1="548.82" y1="244.26" x2="555.19" y2="244.26" xlink:href="#Degradado_sin_nombre_12"/><linearGradient id="Degradado_sin_nombre_12-31" x1="560.54" y1="244.33" x2="566.92" y2="244.33" xlink:href="#Degradado_sin_nombre_12"/><linearGradient id="Degradado_sin_nombre_12-32" x1="572.08" y1="244.32" x2="578.47" y2="244.32" xlink:href="#Degradado_sin_nombre_12"/><linearGradient id="Degradado_sin_nombre_12-33" x1="584.8" y1="244.32" x2="591.19" y2="244.32" xlink:href="#Degradado_sin_nombre_12"/><linearGradient id="Degradado_sin_nombre_12-34" x1="597.52" y1="244.32" x2="603.92" y2="244.32" xlink:href="#Degradado_sin_nombre_12"/><linearGradient id="Degradado_sin_nombre_12-35" x1="610" y1="245.34" x2="616.39" y2="245.34" xlink:href="#Degradado_sin_nombre_12"/><linearGradient id="Degradado_sin_nombre_12-36" x1="622.56" y1="244.32" x2="628.96" y2="244.32" xlink:href="#Degradado_sin_nombre_12"/><linearGradient id="Degradado_sin_nombre_12-37" x1="635.44" y1="248.11" x2="641.83" y2="248.11" xlink:href="#Degradado_sin_nombre_12"/><linearGradient id="Degradado_sin_nombre_12-38" x1="648.56" y1="245.77" x2="654.96" y2="245.77" xlink:href="#Degradado_sin_nombre_12"/><linearGradient id="Degradado_sin_nombre_12-39" x1="662.4" y1="248.74" x2="668.78" y2="248.74" xlink:href="#Degradado_sin_nombre_12"/></defs><title>RADIO YUCUNITZA 2</title><path d="M202.56,413.64q0,3.58,3.65,3.58a12.47,12.47,0,0,0,6.14-1.38l-.68,15.6a23.09,23.09,0,0,1-14.91,5.38q-15.58,0-17-12-8.28,12-22.29,12t-18.14-6.35a15.66,15.66,0,0,1-2.76-9.11,48.79,48.79,0,0,1,.83-9.38l7.72-43.47h23.46l-6.48,36.71a29.68,29.68,0,0,0-.42,5q0,6.62,7.45,6.62a12.53,12.53,0,0,0,9.94-4.28l7.87-44h23.45L202.7,412A9.22,9.22,0,0,0,202.56,413.64Z"/><path d="M248.78,436.82q-28.69,0-28.7-19.87a34.63,34.63,0,0,1,.55-5.94l2.9-17.11q2.21-13.25,12.07-20.28t25-7.18q29.4,0,29.39,20.43a28.12,28.12,0,0,1-1,7.93,13.36,13.36,0,0,1-2.14,4.76l-1.11,1.38H262.31a9.29,9.29,0,0,0,3.45-7.17q0-7.45-7.46-7.46a11.5,11.5,0,0,0-7.58,2.63q-3.18,2.61-4.14,8L244.78,407a13.72,13.72,0,0,0-.27,2.62q0,7.32,9.1,7.32a8.47,8.47,0,0,0,5.45-1.93,7.13,7.13,0,0,0,2.83-4.28l22.91.27Q280.24,436.83,248.78,436.82Z"/><path d="M363.31,413.64q0,3.58,3.66,3.58a12.47,12.47,0,0,0,6.14-1.38l-.69,15.6a23,23,0,0,1-14.9,5.38q-15.6,0-17-12-8.28,12-22.29,12t-18.15-6.35a15.66,15.66,0,0,1-2.76-9.11,49.6,49.6,0,0,1,.83-9.38l7.73-43.47h23.46l-6.49,36.71a30.76,30.76,0,0,0-.41,5q0,6.62,7.45,6.62a12.54,12.54,0,0,0,9.94-4.28l7.86-44h23.46L363.45,412A10.24,10.24,0,0,0,363.31,413.64Z"/><path d="M426.1,392.52q0-5.92-5.73-5.93a12,12,0,0,0-9.45,4.28l-7.73,44H379.73l11.73-66.38h21.81l-1.52,8.14q8.14-10.06,20.56-10.07t16.14,6.07a16.63,16.63,0,0,1,2.35,8.83,58.11,58.11,0,0,1-.69,9.25L446.38,412a9.45,9.45,0,0,0-.13,1.52q0,3.72,4.14,3.72a11.42,11.42,0,0,0,5.65-1.38l-.69,15.6a22.5,22.5,0,0,1-14.76,5.38q-18.76,0-18.77-15.73a35.67,35.67,0,0,1,.55-5.94l3.32-18.35A27.14,27.14,0,0,0,426.1,392.52Z"/><path d="M493.3,417.22a11.46,11.46,0,0,0,5.66-1.38l-.69,15.6a22.55,22.55,0,0,1-14.77,5.38q-12.56,0-16.28-5.8a14.87,14.87,0,0,1-2.48-8.21,46.86,46.86,0,0,1,.55-7.66l8.28-46.64H497L489.3,412a9.54,9.54,0,0,0-.14,1.52Q489.16,417.22,493.3,417.22Zm-17-71.2q0-8.83,3.93-12.9t12.21-4.07q11.59,0,11.59,10.21c0,5.79-1.31,10-3.93,12.69s-6.74,4-12.35,4Q476.32,356,476.33,346Z"/><path d="M536.9,436.82q-16,0-23-7.18-5.25-5.24-5.25-14.07a37.75,37.75,0,0,1,.56-6.21l9.38-53.4,25.25-10.49-4,23h38.09L574.44,388H536.35l-2.76,15.59a22.88,22.88,0,0,0-.55,4.69q0,8.7,8.28,8.7a9.08,9.08,0,0,0,7.38-3.73,21.82,21.82,0,0,0,4.07-9.93h22.91Q569.89,436.81,536.9,436.82Z"/><path d="M641.22,434.89h-62l3.45-19.32,38.91-27.74H587.55L591,368.51h62l-3.45,19.32-37.67,27.74h32.84Z"/><path d="M722.5,413.64q0,3.58,3.66,3.58a12.53,12.53,0,0,0,6.14-1.38l-.69,15.6a23.09,23.09,0,0,1-14.91,5.38q-15.18,0-16.83-11-6.9,11-20.29,11-22.62,0-22.63-19.46a43.3,43.3,0,0,1,.69-7.31l2.9-16.15q2.21-12.42,10.14-19.8t20.7-7.38q12.76,0,17.32,5.93l.69-4.14h21L722.64,412A9.22,9.22,0,0,0,722.5,413.64ZM681.65,407a17.13,17.13,0,0,0-.27,3.45,6.32,6.32,0,0,0,2.07,4.35q2.07,2.15,7,2.14a11.2,11.2,0,0,0,8.48-3.87L703,389.9q-1.51-3.45-7.17-3.45-10.64,0-12.42,10.21Z"/><path d="M115.33,354.72l28.5-42.66h30.35l-51.93,74.7L114,433.47H83.46l8.27-46.71-25.64-74.7H98.3l13.15,42.66Z"/><path class="cls-1" d="M206,450.78h4v35.4h20.63L230,489.7H206Z"/><path class="cls-1" d="M259.13,484a36.79,36.79,0,0,0,.39,5.69h-3.58a17.63,17.63,0,0,1-.49-4c-1,2-3.32,4.69-8.95,4.69-6.55,0-9.37-4.25-9.37-8.48,0-6.21,4.84-9.05,13.22-9.05h5.08v-2.64c0-2.66-.82-6.08-6.69-6.08-5.22,0-6,2.68-6.61,4.93h-3.66c.35-3.44,2.48-8.07,10.37-8.06,6.6,0,10.29,2.74,10.29,9Zm-3.66-8.33h-5.06c-5.93,0-9.4,1.59-9.4,6,0,3.25,2.28,5.53,6,5.53,7.44,0,8.46-5,8.46-10.59Z"/><path class="cls-1" d="M288.23,461.65c4.2,12.22,7.17,20.88,8.14,24.43h.05c.65-2.55,3.72-10.93,8.6-24.43h3.86L298.41,489.7h-4.26l-9.9-28.05Z"/><path class="cls-1" d="M340.07,475.62c0,7.92-4.46,14.74-12.91,14.74-7.79,0-12.57-6.22-12.57-14.67,0-8.14,4.58-14.71,12.86-14.71C335.06,461,340.07,466.81,340.07,475.62Zm-21.59.05c0,6.44,3.36,11.41,8.89,11.41s8.81-4.65,8.81-11.4c0-6.48-3.14-11.42-8.92-11.42S318.48,469.09,318.48,475.67Z"/><path class="cls-1" d="M346.3,486.51l17-21.57H347.16v-3.29H367.6V465l-16.78,21.44h17.46l-.72,3.29H346.3Z"/><path class="cls-1" d="M416.06,448.69v33c0,2.66,0,5.25.06,8h-3.59c-.12-.71-.19-3.12-.2-4.38-1.39,3.19-4.4,5-9.15,5-7.26,0-11.66-5.9-11.66-14.37,0-8.64,4.78-15,12.46-15,5.32,0,7.55,2.22,8.35,3.92V448.69Zm-20.63,27.17c0,7.27,3.64,11.2,8.27,11.2,7,0,8.78-5,8.78-11.94,0-6.78-1.54-10.84-8.33-10.84C398.87,464.28,395.43,468.48,395.43,475.86Z"/><path class="cls-1" d="M429.25,476.26c.05,6.53,3.34,10.82,8.44,10.82,4.89,0,6.52-2.66,7.48-4.84H449c-1.14,3.65-4.13,8.12-11.39,8.12-8.66,0-12.1-7.26-12.1-14.43,0-8.17,4.08-14.95,12.43-14.95,8.82,0,11.67,7.37,11.67,13,0,.82,0,1.57-.07,2.32Zm16.48-2.9c-.05-5.13-2.76-9.2-7.94-9.2-5.39,0-7.81,3.76-8.37,9.2Z"/><path class="cls-1" d="M477,481.82c.89,3.39,3.33,5.4,7.47,5.4,4.59,0,6.43-2.06,6.43-4.93s-1.32-4.35-7.18-5.76c-7.59-1.84-9.33-4.15-9.33-7.9,0-3.92,2.92-7.65,9.65-7.65s9.75,4,10.16,8h-3.66c-.46-2.11-2.09-4.84-6.65-4.84s-5.74,2.17-5.74,4.23c0,2.36,1.25,3.53,6.62,4.83,8.18,1.95,10,4.65,10,8.84,0,5-4,8.36-10.42,8.36-6.79,0-10.37-3.5-11.12-8.54Z"/><path class="cls-1" d="M505.89,476.26c.05,6.53,3.34,10.82,8.44,10.82,4.89,0,6.53-2.66,7.49-4.84h3.78c-1.15,3.65-4.14,8.12-11.4,8.12-8.66,0-12.1-7.26-12.1-14.43,0-8.17,4.09-14.95,12.43-14.95,8.83,0,11.67,7.37,11.67,13,0,.82,0,1.57-.06,2.32Zm16.48-2.9c0-5.13-2.76-9.2-7.93-9.2-5.4,0-7.82,3.76-8.38,9.2Z"/><path class="cls-1" d="M558.31,448.69v33c0,2.66,0,5.25.06,8h-3.59c-.12-.71-.19-3.12-.2-4.38-1.39,3.19-4.4,5-9.15,5-7.26,0-11.66-5.9-11.66-14.37,0-8.64,4.78-15,12.47-15,5.31,0,7.54,2.22,8.34,3.92V448.69Zm-20.63,27.17c0,7.27,3.64,11.2,8.27,11.2,7,0,8.78-5,8.78-11.94,0-6.78-1.54-10.84-8.33-10.84C541.12,464.28,537.68,468.48,537.68,475.86Z"/><path class="cls-1" d="M589.45,484a36.79,36.79,0,0,0,.39,5.69h-3.58a17.23,17.23,0,0,1-.48-4c-1,2-3.33,4.69-9,4.69-6.55,0-9.37-4.25-9.37-8.48,0-6.21,4.84-9.05,13.22-9.05h5.08v-2.64c0-2.66-.82-6.08-6.69-6.08-5.22,0-6,2.68-6.61,4.93h-3.66c.35-3.44,2.48-8.07,10.37-8.06,6.6,0,10.29,2.74,10.29,9Zm-3.65-8.33h-5.06c-5.94,0-9.41,1.59-9.41,6,0,3.25,2.28,5.53,6,5.53,7.44,0,8.47-5,8.47-10.59Z"/><path class="cls-1" d="M191.93,334.09V351.8h-4V312.89h14.52c7.82,0,12,4.22,12,10.31a8.83,8.83,0,0,1-7,9.13c3.63.91,6.34,3.41,6.34,10.09V344c0,2.71-.18,6.25.51,7.81h-3.94c-.72-1.67-.61-4.75-.61-8.23v-.92c0-6-1.74-8.56-9-8.56Zm0-3.48h9c6.44,0,9.35-2.41,9.35-7.19,0-4.49-2.92-7-8.63-7h-9.69Z"/><path class="cls-1" d="M245.15,346.11a37.9,37.9,0,0,0,.39,5.69H242a17,17,0,0,1-.48-4c-1,2-3.33,4.69-8.95,4.69-6.56,0-9.37-4.25-9.37-8.48,0-6.22,4.83-9.05,13.21-9.05h5.08V332.3c0-2.66-.81-6.08-6.69-6.08-5.21,0-6,2.68-6.6,4.93H224.5c.35-3.44,2.48-8.07,10.36-8.07,6.61,0,10.29,2.75,10.29,9Zm-3.65-8.33h-5.06c-5.94,0-9.41,1.59-9.41,6,0,3.25,2.29,5.54,6,5.54,7.45,0,8.47-5,8.47-10.6Z"/><path class="cls-1" d="M279.18,310.79v33c0,2.67,0,5.25.06,8h-3.59c-.12-.7-.19-3.12-.2-4.38-1.4,3.2-4.4,5.05-9.15,5.05-7.26,0-11.66-5.9-11.66-14.38s4.77-15,12.46-15c5.32,0,7.55,2.23,8.35,3.93V310.79ZM258.55,338c0,7.27,3.64,11.19,8.27,11.19,7,0,8.77-5,8.77-11.93,0-6.78-1.54-10.84-8.32-10.84C262,326.39,258.55,330.59,258.55,338Z"/><path class="cls-1" d="M290.71,310.79h3.73v5.72h-3.73Zm0,13h3.73V351.8h-3.73Z"/><path class="cls-1" d="M329.39,337.72c0,7.93-4.46,14.75-12.92,14.75-7.78,0-12.56-6.22-12.56-14.67,0-8.14,4.58-14.72,12.86-14.72C324.38,323.08,329.39,328.92,329.39,337.72Zm-21.59.06c0,6.43,3.35,11.41,8.89,11.41s8.81-4.66,8.81-11.4c0-6.48-3.14-11.42-8.93-11.42S307.8,331.2,307.8,337.78Z"/><path d="M195.79,244.39h0c0,2,0,4.06,0,6.09a3.16,3.16,0,1,1-6.32.07q0-3.42,0-6.82l.18-.09c.92.06,3.34-.63,6.21-1.61Z"/><path d="M209.74,259.91c0,2.58-2.25,4.21-4.37,3.1a5.19,5.19,0,0,1-1.78-2.12,4.11,4.11,0,0,1-.2-1.84q0-9.92,0-19.81c3.55-1.37,6.37-2.53,6.37-2.53,0,2.56,0,5.11,0,7.68C209.75,249.56,209.78,254.73,209.74,259.91Z"/><path d="M223.15,244.39c0,2,0,4.06,0,6.09a3.16,3.16,0,1,1-6.32.07q-.1-6.24,0-12.47a3.17,3.17,0,1,1,6.33.07Z"/><path d="M235.87,244.39c0,5.17,0,10.34,0,15.52,0,2.58-2.25,4.21-4.37,3.1a5,5,0,0,1-1.78-2.12,4,4,0,0,1-.2-1.84q0-14.73,0-29.45a9.11,9.11,0,0,1,.14-1.73,3.23,3.23,0,0,1,.58-1.32,3.12,3.12,0,0,1,2.78-1.22,2.2,2.2,0,0,1,.37.06,3,3,0,0,1,2.47,2.9c.06,2.51,0,5,0,7.54Z"/><path d="M248.59,244.39c0,2,0,4.06,0,6.09a3.16,3.16,0,1,1-6.32.07q-.1-6.24,0-12.47a3.17,3.17,0,1,1,6.33.07Z"/><path d="M261.37,244.31c0,2,0,4,0,5.95,0,2.14-1.33,3.55-3.22,3.53a3.22,3.22,0,0,1-3.13-3.48q0-6,0-12a3.16,3.16,0,0,1,3.14-3.43c1.91,0,3.18,1.36,3.21,3.52C261.39,240.34,261.37,242.33,261.37,244.31Z"/><path d="M274.07,229q0,15.38,0,30.75a3.27,3.27,0,0,1-2.57,3.53,3,3,0,0,1-3.43-1.82,5.21,5.21,0,0,1-.3-2c0-5.08,0-10.15,0-15.23s0-10.15,0-15.23c0-2.29,1.22-3.72,3.13-3.73S274.07,226.71,274.07,229Z"/><path d="M288.17,216.79q0,27.51,0,55a8.8,8.8,0,0,1-.06,1.45,3.31,3.31,0,0,1-3.21,2.81,3.21,3.21,0,0,1-3.06-3.1c-.07-2.17,0-4.35,0-6.53q0-11.1,0-22.2,0-13.72,0-27.43a6.05,6.05,0,0,1,.22-2.14,3,3,0,0,1,3-2.08,3.09,3.09,0,0,1,2.95,2.35A7.67,7.67,0,0,1,288.17,216.79Z"/><path d="M300.84,235.81c0,2.86,0,5.71,0,8.56,0,5.17,0,10.35,0,15.52,0,2.59-2.25,4.21-4.37,3.11a5.25,5.25,0,0,1-1.78-2.12,4.15,4.15,0,0,1-.2-1.85q0-14.71,0-29.44a9,9,0,0,1,.14-1.73,3.08,3.08,0,0,1,3.36-2.54,3,3,0,0,1,2.83,3C300.88,230.78,300.84,233.3,300.84,235.81Z"/><path d="M313.56,244.37c0,2,0,4.06,0,6.09a3.16,3.16,0,1,1-6.31.08q-.11-6.24,0-12.47a3.17,3.17,0,1,1,6.33.07v6.23Z"/><path d="M326.35,244.3c0,2,0,4,0,5.94,0,2.15-1.33,3.55-3.22,3.53A3.21,3.21,0,0,1,320,250.3q0-6,0-12a3.17,3.17,0,0,1,3.14-3.44c1.91,0,3.18,1.37,3.2,3.53C326.37,240.33,326.35,242.31,326.35,244.3Z"/><path d="M339,229q0,15.38,0,30.75a3.26,3.26,0,0,1-2.57,3.54,3.07,3.07,0,0,1-3.43-1.82,5.27,5.27,0,0,1-.3-2c0-5.07,0-10.15,0-15.22s0-10.16,0-15.23c0-2.29,1.23-3.72,3.13-3.73S339,226.7,339,229Z"/><path d="M351.76,244.28c0,9.24,0,18.48,0,27.71a5.83,5.83,0,0,1-.53,2.49,2.76,2.76,0,0,1-3,1.49,3,3,0,0,1-2.61-2.38,8.35,8.35,0,0,1-.17-1.87q0-27.44,0-54.86a6.5,6.5,0,0,1,.64-2.89,2.71,2.71,0,0,1,3.24-1.33,3,3,0,0,1,2.39,2.62,12.6,12.6,0,0,1,.07,1.74Z"/><path d="M364.44,229c0,5.13,0,10.25,0,15.37s0,10.16,0,15.23c0,2.28-1.25,3.74-3.15,3.74s-3.2-1.51-3.2-3.73q0-15.3,0-30.6c0-1.94,1-3.29,2.48-3.64a3.07,3.07,0,0,1,3.5,1.68A4.93,4.93,0,0,1,364.44,229Z"/><path d="M377.18,238.26c0,2,0,4.06,0,6.09s0,4,0,6a3.18,3.18,0,1,1-6.33.09q0-6.09,0-12.18a3.17,3.17,0,1,1,6.33,0Z"/><path d="M389.93,229q0,15.3,0,30.61c0,2.21-1.34,3.74-3.2,3.73s-3.15-1.46-3.15-3.73q0-7.62,0-15.24t0-15.38c0-2.3,1.21-3.69,3.15-3.69S389.93,226.74,389.93,229Z"/><path d="M402.64,244.37q0,13.78,0,27.57a3.79,3.79,0,0,1-1.4,3.46,3.09,3.09,0,0,1-4.89-2,11.21,11.21,0,0,1-.09-1.74q0-27.36,0-54.71a8.29,8.29,0,0,1,.22-2.29,3.13,3.13,0,0,1,6,.3,6.83,6.83,0,0,1,.16,1.87Q402.65,230.59,402.64,244.37Z"/><path d="M415.28,199.69c0,.48,0,1,0,1.45v43.23q0,21,0,42.07l-5.77,0a4.93,4.93,0,0,1-.58.06q0-42.66,0-85.3a8.58,8.58,0,0,1,.21-2.15,3.19,3.19,0,0,1,3.27-2.33A3.25,3.25,0,0,1,415.28,199.69Z"/><path d="M428.06,272.22c0,2.22-1.36,3.72-3.11,3.81-1.91.1-3.27-1.5-3.27-3.8q0-27.95,0-55.88c0-2,1-3.42,2.53-3.74a3.13,3.13,0,0,1,3.54,1.9,5.11,5.11,0,0,1,.26,1.83q0,14,0,28C428,253.64,428,262.93,428.06,272.22Z"/><path d="M440.77,244.36c0,5.12,0,10.25,0,15.38,0,2.68-2.2,4.3-4.43,3.29a3.35,3.35,0,0,1-1.94-3.42c0-6.87,0-13.74,0-20.6,0-3.39,0-6.78,0-10.16,0-2.14,1.29-3.56,3.16-3.56s3.18,1.39,3.19,3.54C440.79,234,440.77,239.18,440.77,244.36Z"/><path d="M453.49,271.79a9.86,9.86,0,0,1-.05,1.44,3.31,3.31,0,0,1-3.21,2.81,3.2,3.2,0,0,1-3.06-3.09c-.07-2.17,0-4.35,0-6.53V244.21q0-13.71,0-27.43a6.1,6.1,0,0,1,.22-2.14,3,3,0,0,1,3-2.08,3.11,3.11,0,0,1,2.95,2.35,7.8,7.8,0,0,1,.17,1.87Q453.51,244.28,453.49,271.79Z"/><path d="M466.16,235.8v8.56c0,5.17,0,10.35,0,15.52,0,2.59-2.25,4.21-4.37,3.1a5,5,0,0,1-1.78-2.11,4,4,0,0,1-.2-1.85q0-14.73,0-29.45a9.17,9.17,0,0,1,.13-1.73,3.09,3.09,0,0,1,3.36-2.53,3,3,0,0,1,2.84,2.95C466.2,230.77,466.16,233.29,466.16,235.8Z"/><path d="M478.88,238.12c0,.1,0,.2,0,.29v6h0c0,2,0,4.06,0,6.09a3.16,3.16,0,1,1-6.32.07c-.06-4.15-.07-8.31,0-12.47a3.17,3.17,0,1,1,6.33.07Z"/><path d="M491.55,244.37c0,5.17,0,10.35,0,15.52,0,2.59-2.25,4.21-4.37,3.11a5.15,5.15,0,0,1-1.77-2.12,4,4,0,0,1-.21-1.85q0-14.71,0-29.44a9,9,0,0,1,.14-1.73,3.13,3.13,0,0,1,6.2.41c.06,2.51,0,5,0,7.54Z"/><path d="M504.27,244.37c0,2,0,4.06,0,6.09a3.16,3.16,0,1,1-6.32.08q-.1-6.24,0-12.47a3.17,3.17,0,1,1,6.33.07Z"/><path d="M517,238.14a2.71,2.71,0,0,1,0,.29v5.94h0c0,2,0,4.06,0,6.09a3.16,3.16,0,1,1-6.32.08c-.06-4.16-.07-8.32,0-12.47a3.17,3.17,0,1,1,6.33.07Z"/><path d="M529.71,239c0,6.86,0,13.73,0,20.6a3.33,3.33,0,0,1-1.93,3.42c-2.23,1-4.42-.61-4.43-3.29,0-5.13,0-10.26,0-15.38s0-10.35,0-15.53c0-2.15,1.29-3.54,3.18-3.54s3.16,1.42,3.17,3.56C529.72,232.23,529.71,235.62,529.71,239Z"/><path d="M542.44,216.35v55.88c0,2.3-1.37,3.9-3.27,3.8-1.75-.09-3.13-1.59-3.11-3.81.09-9.29,0-18.58,0-27.87s0-18.67,0-28a5.11,5.11,0,0,1,.26-1.83,3.11,3.11,0,0,1,3.53-1.9C541.47,212.93,542.44,214.34,542.44,216.35Z"/><path d="M555,199a8.58,8.58,0,0,1,.22,2.15q0,42.57,0,85.13l-6.35.2q0-21.08,0-42.14V201.14c0-.48,0-1,0-1.45a3.24,3.24,0,0,1,2.85-3A3.18,3.18,0,0,1,555,199Z"/><path d="M566.92,216.39v55.87c0,2.31-1.37,3.91-3.27,3.81s-3.13-1.59-3.11-3.81c.09-9.29,0-18.58,0-27.87s0-18.67,0-28a5.16,5.16,0,0,1,.26-1.84,3.12,3.12,0,0,1,3.53-1.89C566,213,566.92,214.38,566.92,216.39Z"/><path d="M578.46,244.38c0,5.12,0,10.25,0,15.37,0,2.69-2.2,4.3-4.43,3.3a3.35,3.35,0,0,1-1.94-3.43c0-6.86,0-13.73,0-20.6,0-3.38,0-6.77,0-10.15,0-2.14,1.3-3.56,3.17-3.56s3.17,1.39,3.18,3.54C578.47,234,578.46,239.2,578.46,244.38Z"/><path d="M591.14,238.08q.09,6.24,0,12.47a3.16,3.16,0,1,1-6.31-.07c-.05-2,0-4.06,0-6.09h0v-5.95c0-.09,0-.19,0-.29a3.17,3.17,0,1,1,6.33-.07Z"/><path d="M603.86,238.08q.1,6.24,0,12.47a3.16,3.16,0,1,1-6.32-.07c0-2,0-4.06,0-6.09v-6.24a3.17,3.17,0,1,1,6.33-.07Z"/><path d="M616.37,259.75c0,2.69-2.2,4.3-4.43,3.3a3.35,3.35,0,0,1-1.94-3.43c0-6.86,0-13.73,0-20.6,0-3.38,0-6.77,0-10.15a4.29,4.29,0,0,1,.26-1.52,57.1,57.1,0,0,0,6.09,2c0,5,0,10,0,15S616.4,254.63,616.37,259.75Z"/><path d="M628.9,238.08q.11,6.24,0,12.47a3.16,3.16,0,1,1-6.32-.07c0-2,0-4.06,0-6.09v-6.24a3.17,3.17,0,1,1,6.33-.07Z"/><path d="M641.81,259.75c0,2.69-2.2,4.3-4.43,3.3a3.35,3.35,0,0,1-1.94-3.43c0-6.86,0-13.73,0-20.6v-6.13c2.46.68,4.58,1.37,6.37,2v9.47C641.82,249.5,641.84,254.63,641.81,259.75Z"/><path d="M654.9,250.49a3.16,3.16,0,1,1-6.32-.07c0-2,0-4.06,0-6.09v-6.24a2.46,2.46,0,0,1,0-.28l6.34,2.72Q655,245.51,654.9,250.49Z"/><path d="M668.78,246.47c0,1.34,0,2.68,0,4a3.16,3.16,0,1,1-6.32-.07c0-2,0-4.06,0-6.09v-.59Z"/><path class="cls-2" d="M705.78,274.32,686.59,254.1l-17.81-7.63c0,1.34,0,2.68,0,4a3.16,3.16,0,1,1-6.32-.07c0-2,0-4.06,0-6.09v-.59l-7.48-3.21q.06,5,0,10a3.16,3.16,0,1,1-6.32-.07c0-2,0-4.06,0-6.09v-6.24a2.46,2.46,0,0,1,0-.28l-.05,0a49.81,49.81,0,0,0-6.72-2.88v9.47c0,5.12,0,10.25,0,15.37,0,2.69-2.2,4.3-4.43,3.3a3.35,3.35,0,0,1-1.94-3.43c0-6.86,0-13.73,0-20.6v-6.13a106.75,106.75,0,0,0-13-2.7,19.42,19.42,0,0,1-6.09-.86c0,5,0,10,0,15s0,10.25,0,15.37c0,2.69-2.2,4.3-4.43,3.3a3.35,3.35,0,0,1-1.94-3.43c0-6.86,0-13.73,0-20.6,0-3.38,0-6.77,0-10.15a4.29,4.29,0,0,1,.26-1.52c-6.24-2.41-15-6.83-26.75-14.9,0,0-.61-5.29-10.39-9.57l-3.47-3.06s-3.26-3.47-5.91-3.87c0,0-13.65-10.6-20.17-11.42l-8.16-2.65s-9.58-2.24-24.66-1.63l-13.86-.1H479l-10.19,1.12-2.45.41-5.28-.59-5.72,0-2.65.41h-8.76l-19,1.42s-10.39,2.24-20,4.69c-1,0-9.17,1.43-9.17,1.43s-7.34,1.83-11.21,2.44l-6.73,1s-29.34,2.24-42.18,9.38c0,0-3.47,3.67-16.51,4.68l-14.88.21L275,208s-18.54-.41-28.12,10.8l-9.38,5.1-4.1,1.52a3,3,0,0,1,2.47,2.9c.06,2.51,0,5,0,7.54v8.56c0,5.17,0,10.34,0,15.52,0,2.58-2.25,4.21-4.37,3.1a5,5,0,0,1-1.78-2.12,4,4,0,0,1-.2-1.84q0-14.73,0-29.45a9.11,9.11,0,0,1,.14-1.73,3.23,3.23,0,0,1,.58-1.32l-3.75,1.39s-10.4,4.49-16.72,8.77c0,2.56,0,5.11,0,7.68,0,5.17,0,10.34,0,15.52,0,2.58-2.25,4.21-4.37,3.1a5.19,5.19,0,0,1-1.78-2.12,4.11,4.11,0,0,1-.2-1.84q0-9.92,0-19.81c-2.41.93-5.16,2-7.59,2.79v2.36h0c0,2,0,4.06,0,6.09a3.16,3.16,0,1,1-6.32.07q0-3.42,0-6.82L169.2,254.1l-20.59,9.1L77.67,294.5l-13,4.1s115.43-2.42,127.1,1.84a281.25,281.25,0,0,1,59.51-1.32s48.84-.92,59.24-.54l36.27-4.08s53.38,7,61.69,5.79l32.77.15s62.73-14.22,78.62.41l26.54-.41s45.24-1.7,61.14,0h36.68s16.51-4.14,25.07,0h53.51ZM223.14,250.48a3.16,3.16,0,1,1-6.32.07q-.1-6.24,0-12.47a3.17,3.17,0,1,1,6.33.07v6.24C223.15,246.42,223.18,248.45,223.14,250.48Zm25.44,0a3.16,3.16,0,1,1-6.32.07q-.1-6.24,0-12.47a3.17,3.17,0,1,1,6.33.07v6.24C248.59,246.42,248.62,248.45,248.58,250.48Zm12.79-.22c0,2.14-1.33,3.55-3.22,3.53a3.22,3.22,0,0,1-3.13-3.48q0-6,0-12a3.16,3.16,0,0,1,3.14-3.43c1.91,0,3.18,1.36,3.21,3.52,0,2,0,4,0,5.95S261.39,248.28,261.37,250.26Zm12.7,9.48a3.27,3.27,0,0,1-2.57,3.53,3,3,0,0,1-3.43-1.82,5.21,5.21,0,0,1-.3-2c0-5.08,0-10.15,0-15.23s0-10.15,0-15.23c0-2.29,1.22-3.72,3.13-3.73s3.18,1.42,3.18,3.7Q274.08,244.37,274.07,259.74Zm14.05,13.51a3.31,3.31,0,0,1-3.21,2.81,3.21,3.21,0,0,1-3.06-3.1c-.07-2.17,0-4.35,0-6.53q0-11.1,0-22.2,0-13.72,0-27.43a6.05,6.05,0,0,1,.22-2.14,3,3,0,0,1,3-2.08,3.09,3.09,0,0,1,2.95,2.35,7.67,7.67,0,0,1,.16,1.86q0,27.51,0,55A8.8,8.8,0,0,1,288.12,273.25Zm12.71-13.36c0,2.59-2.25,4.21-4.37,3.11a5.25,5.25,0,0,1-1.78-2.12,4.15,4.15,0,0,1-.2-1.85q0-14.71,0-29.44a9,9,0,0,1,.14-1.73,3.08,3.08,0,0,1,3.36-2.54,3,3,0,0,1,2.83,3c.07,2.51,0,5,0,7.54,0,2.86,0,5.71,0,8.56C300.84,249.54,300.87,254.72,300.83,259.89Zm12.72-9.43a3.16,3.16,0,1,1-6.31.08q-.11-6.24,0-12.47a3.17,3.17,0,1,1,6.33.07v6.23h0C313.56,246.4,313.6,248.43,313.55,250.46Zm12.79-.22c0,2.15-1.33,3.55-3.22,3.53A3.21,3.21,0,0,1,320,250.3q0-6,0-12a3.17,3.17,0,0,1,3.14-3.44c1.91,0,3.18,1.37,3.2,3.53,0,2,0,4,0,6S326.37,248.26,326.34,250.24Zm12.7,9.48a3.26,3.26,0,0,1-2.57,3.54,3.07,3.07,0,0,1-3.43-1.82,5.27,5.27,0,0,1-.3-2c0-5.07,0-10.15,0-15.22s0-10.16,0-15.23c0-2.29,1.23-3.72,3.13-3.73S339,226.7,339,229Q339.06,244.35,339,259.72ZM351.74,272a5.83,5.83,0,0,1-.53,2.49,2.76,2.76,0,0,1-3,1.49,3,3,0,0,1-2.61-2.38,8.35,8.35,0,0,1-.17-1.87q0-27.44,0-54.86a6.5,6.5,0,0,1,.64-2.89,2.71,2.71,0,0,1,3.24-1.33,3,3,0,0,1,2.39,2.62,12.6,12.6,0,0,1,.07,1.74v27.28C351.76,253.52,351.77,262.76,351.74,272Zm12.71-12.4c0,2.28-1.25,3.74-3.15,3.74s-3.2-1.51-3.2-3.73q0-15.3,0-30.6c0-1.94,1-3.29,2.48-3.64a3.07,3.07,0,0,1,3.5,1.68,4.93,4.93,0,0,1,.36,2c0,5.13,0,10.25,0,15.37S364.46,254.52,364.45,259.59Zm12.73-9.29a3.18,3.18,0,1,1-6.33.09q0-6.09,0-12.18a3.17,3.17,0,1,1,6.33,0c0,2,0,4.06,0,6.09S377.2,248.32,377.18,250.3Zm12.75,9.3c0,2.21-1.34,3.74-3.2,3.73s-3.15-1.46-3.15-3.73q0-7.62,0-15.24t0-15.38c0-2.3,1.21-3.69,3.15-3.69s3.2,1.45,3.2,3.7Q389.95,244.29,389.93,259.6Zm11.32,15.8a3.09,3.09,0,0,1-4.89-2,11.21,11.21,0,0,1-.09-1.74q0-27.36,0-54.71a8.29,8.29,0,0,1,.22-2.29,3.13,3.13,0,0,1,6,.3,6.83,6.83,0,0,1,.16,1.87q0,13.78,0,27.57t0,27.57A3.79,3.79,0,0,1,401.25,275.4Zm14.05-74.26v43.23q0,21,0,42.07v1.31a5.55,5.55,0,0,1-.25,2.13,3,3,0,0,1-3.08,2,3,3,0,0,1-2.81-2.33,8.1,8.1,0,0,1-.21-2.15v-.88q0-42.66,0-85.3a8.58,8.58,0,0,1,.21-2.15,3.19,3.19,0,0,1,3.27-2.33,3.25,3.25,0,0,1,2.86,3C415.31,200.17,415.3,200.66,415.3,201.14ZM425,276c-1.91.1-3.27-1.5-3.27-3.8q0-27.95,0-55.88c0-2,1-3.42,2.53-3.74a3.13,3.13,0,0,1,3.54,1.9,5.11,5.11,0,0,1,.26,1.83q0,14,0,28c0,9.29-.06,18.58,0,27.87C428.08,274.44,426.7,275.94,425,276Zm15.82-16.29c0,2.68-2.2,4.3-4.43,3.29a3.35,3.35,0,0,1-1.94-3.42c0-6.87,0-13.74,0-20.6,0-3.39,0-6.78,0-10.16,0-2.14,1.29-3.56,3.16-3.56s3.18,1.39,3.19,3.54c0,5.18,0,10.35,0,15.53S440.79,254.61,440.77,259.74Zm12.67,13.49a3.31,3.31,0,0,1-3.21,2.81,3.2,3.2,0,0,1-3.06-3.09c-.07-2.17,0-4.35,0-6.53V244.21q0-13.71,0-27.43a6.1,6.1,0,0,1,.22-2.14,3,3,0,0,1,3-2.08,3.11,3.11,0,0,1,2.95,2.35,7.8,7.8,0,0,1,.17,1.87q0,27.5,0,55A9.86,9.86,0,0,1,453.44,273.23Zm12.71-13.35c0,2.59-2.25,4.21-4.37,3.1a5,5,0,0,1-1.78-2.11,4,4,0,0,1-.2-1.85q0-14.73,0-29.45a9.17,9.17,0,0,1,.13-1.73,3.09,3.09,0,0,1,3.36-2.53,3,3,0,0,1,2.84,2.95c.07,2.51,0,5,0,7.54v8.56C466.16,249.53,466.18,254.71,466.15,259.88Zm12.74-15.52h0c0,2,0,4.06,0,6.09a3.16,3.16,0,1,1-6.32.07c-.06-4.15-.07-8.31,0-12.47a3.17,3.17,0,1,1,6.33.07c0,.1,0,.2,0,.29Zm12.64,15.53c0,2.59-2.25,4.21-4.37,3.11a5.15,5.15,0,0,1-1.77-2.12,4,4,0,0,1-.21-1.85q0-14.71,0-29.44a9,9,0,0,1,.14-1.73,3.13,3.13,0,0,1,6.2.41c.06,2.51,0,5,0,7.54v8.56C491.55,249.54,491.57,254.72,491.53,259.89Zm12.73-9.43a3.16,3.16,0,1,1-6.32.08q-.1-6.24,0-12.47a3.17,3.17,0,1,1,6.33.07v6.23C504.27,246.4,504.3,248.43,504.26,250.46ZM517,244.37h0c0,2,0,4.06,0,6.09a3.16,3.16,0,1,1-6.32.08c-.06-4.16-.07-8.32,0-12.47a3.17,3.17,0,1,1,6.33.07,2.71,2.71,0,0,1,0,.29Zm12.71,15.24a3.33,3.33,0,0,1-1.93,3.42c-2.23,1-4.42-.61-4.43-3.29,0-5.13,0-10.26,0-15.38s0-10.35,0-15.53c0-2.15,1.29-3.54,3.18-3.54s3.16,1.42,3.17,3.56c0,3.38,0,6.77,0,10.16C529.71,245.87,529.69,252.74,529.71,259.61Zm12.73,12.62c0,2.3-1.37,3.9-3.27,3.8-1.75-.09-3.13-1.59-3.11-3.81.09-9.29,0-18.58,0-27.87s0-18.67,0-28a5.11,5.11,0,0,1,.26-1.83,3.11,3.11,0,0,1,3.53-1.9c1.57.32,2.54,1.73,2.54,3.74Zm12.74,14.08v1.05a8.1,8.1,0,0,1-.21,2.15,3,3,0,0,1-2.81,2.33,2.94,2.94,0,0,1-3.08-2,5.55,5.55,0,0,1-.25-2.13v-1.24q0-21.08,0-42.14V201.14c0-.48,0-1,0-1.45a3.24,3.24,0,0,1,2.85-3A3.18,3.18,0,0,1,555,199a8.58,8.58,0,0,1,.22,2.15Q555.2,243.75,555.18,286.31Zm11.74-14.05c0,2.31-1.37,3.91-3.27,3.81s-3.13-1.59-3.11-3.81c.09-9.29,0-18.58,0-27.87s0-18.67,0-28a5.16,5.16,0,0,1,.26-1.84,3.12,3.12,0,0,1,3.53-1.89c1.57.32,2.54,1.73,2.54,3.74Zm11.53-12.51c0,2.69-2.2,4.3-4.43,3.3a3.35,3.35,0,0,1-1.94-3.43c0-6.86,0-13.73,0-20.6,0-3.38,0-6.77,0-10.15,0-2.14,1.3-3.56,3.17-3.56s3.17,1.39,3.18,3.54c0,5.18,0,10.35,0,15.53S578.48,254.63,578.45,259.75Zm12.68-9.2a3.16,3.16,0,1,1-6.31-.07c-.05-2,0-4.06,0-6.09h0v-5.95c0-.09,0-.19,0-.29a3.17,3.17,0,1,1,6.33-.07Q591.23,244.32,591.13,250.55Zm12.73,0a3.16,3.16,0,1,1-6.32-.07c0-2,0-4.06,0-6.09v-6.24a3.17,3.17,0,1,1,6.33-.07Q604,244.32,603.86,250.55Zm25,0a3.16,3.16,0,1,1-6.32-.07c0-2,0-4.06,0-6.09v-6.24a3.17,3.17,0,1,1,6.33-.07Q629,244.32,628.9,250.55Z"/><path class="cls-3" d="M195.79,244.39h0c0,2,0,4.06,0,6.09a3.16,3.16,0,1,1-6.32.07q0-3.42,0-6.82l.18-.09c.92.06,3.34-.63,6.21-1.61Z"/><path class="cls-4" d="M209.74,259.91c0,2.58-2.25,4.21-4.37,3.1a5.19,5.19,0,0,1-1.78-2.12,4.11,4.11,0,0,1-.2-1.84q0-9.92,0-19.81c3.55-1.37,6.37-2.53,6.37-2.53,0,2.56,0,5.11,0,7.68C209.75,249.56,209.78,254.73,209.74,259.91Z"/><path class="cls-5" d="M223.15,244.39c0,2,0,4.06,0,6.09a3.16,3.16,0,1,1-6.32.07q-.1-6.24,0-12.47a3.17,3.17,0,1,1,6.33.07Z"/><path class="cls-6" d="M235.87,235.83v8.56c0,5.17,0,10.34,0,15.52,0,2.58-2.25,4.21-4.37,3.1a5,5,0,0,1-1.78-2.12,4,4,0,0,1-.2-1.84q0-14.73,0-29.45a9.11,9.11,0,0,1,.14-1.73,3.23,3.23,0,0,1,.58-1.32l3.15-1.16a3,3,0,0,1,2.47,2.9C235.9,230.8,235.87,233.31,235.87,235.83Z"/><path class="cls-7" d="M248.59,244.39c0,2,0,4.06,0,6.09a3.16,3.16,0,1,1-6.32.07q-.1-6.24,0-12.47a3.17,3.17,0,1,1,6.33.07Z"/><path class="cls-8" d="M261.37,244.31c0,2,0,4,0,5.95,0,2.14-1.33,3.55-3.22,3.53a3.22,3.22,0,0,1-3.13-3.48q0-6,0-12a3.16,3.16,0,0,1,3.14-3.43c1.91,0,3.18,1.36,3.21,3.52C261.39,240.34,261.37,242.33,261.37,244.31Z"/><path class="cls-9" d="M274.07,229q0,15.38,0,30.75a3.27,3.27,0,0,1-2.57,3.53,3,3,0,0,1-3.43-1.82,5.21,5.21,0,0,1-.3-2c0-5.08,0-10.15,0-15.23s0-10.15,0-15.23c0-2.29,1.22-3.72,3.13-3.73S274.07,226.71,274.07,229Z"/><path class="cls-10" d="M288.17,216.79q0,27.51,0,55a8.8,8.8,0,0,1-.06,1.45,3.31,3.31,0,0,1-3.21,2.81,3.21,3.21,0,0,1-3.06-3.1c-.07-2.17,0-4.35,0-6.53q0-11.1,0-22.2,0-13.72,0-27.43a6.05,6.05,0,0,1,.22-2.14,3,3,0,0,1,3-2.08,3.09,3.09,0,0,1,2.95,2.35A7.67,7.67,0,0,1,288.17,216.79Z"/><path class="cls-11" d="M300.84,235.81c0,2.86,0,5.71,0,8.56,0,5.17,0,10.35,0,15.52,0,2.59-2.25,4.21-4.37,3.11a5.25,5.25,0,0,1-1.78-2.12,4.15,4.15,0,0,1-.2-1.85q0-14.71,0-29.44a9,9,0,0,1,.14-1.73,3.08,3.08,0,0,1,3.36-2.54,3,3,0,0,1,2.83,3C300.88,230.78,300.84,233.3,300.84,235.81Z"/><path class="cls-12" d="M313.56,244.37c0,2,0,4.06,0,6.09a3.16,3.16,0,1,1-6.31.08q-.11-6.24,0-12.47a3.17,3.17,0,1,1,6.33.07v6.23Z"/><path class="cls-13" d="M326.35,244.3c0,2,0,4,0,5.94,0,2.15-1.33,3.55-3.22,3.53A3.21,3.21,0,0,1,320,250.3q0-6,0-12a3.17,3.17,0,0,1,3.14-3.44c1.91,0,3.18,1.37,3.2,3.53C326.37,240.33,326.35,242.31,326.35,244.3Z"/><path class="cls-14" d="M339,229q0,15.38,0,30.75a3.26,3.26,0,0,1-2.57,3.54,3.07,3.07,0,0,1-3.43-1.82,5.27,5.27,0,0,1-.3-2c0-5.07,0-10.15,0-15.22s0-10.16,0-15.23c0-2.29,1.23-3.72,3.13-3.73S339,226.7,339,229Z"/><path class="cls-15" d="M351.76,244.28c0,9.24,0,18.48,0,27.71a5.83,5.83,0,0,1-.53,2.49,2.76,2.76,0,0,1-3,1.49,3,3,0,0,1-2.61-2.38,8.35,8.35,0,0,1-.17-1.87q0-27.44,0-54.86a6.5,6.5,0,0,1,.64-2.89,2.71,2.71,0,0,1,3.24-1.33,3,3,0,0,1,2.39,2.62,12.6,12.6,0,0,1,.07,1.74Z"/><path class="cls-16" d="M364.44,229c0,5.13,0,10.25,0,15.37s0,10.16,0,15.23c0,2.28-1.25,3.74-3.15,3.74s-3.2-1.51-3.2-3.73q0-15.3,0-30.6c0-1.94,1-3.29,2.48-3.64a3.07,3.07,0,0,1,3.5,1.68A4.93,4.93,0,0,1,364.44,229Z"/><path class="cls-17" d="M377.18,238.26c0,2,0,4.06,0,6.09s0,4,0,6a3.18,3.18,0,1,1-6.33.09q0-6.09,0-12.18a3.17,3.17,0,1,1,6.33,0Z"/><path class="cls-18" d="M389.93,229q0,15.3,0,30.61c0,2.21-1.34,3.74-3.2,3.73s-3.15-1.46-3.15-3.73q0-7.62,0-15.24t0-15.38c0-2.3,1.21-3.69,3.15-3.69S389.93,226.74,389.93,229Z"/><path class="cls-19" d="M402.64,244.37q0,13.78,0,27.57a3.79,3.79,0,0,1-1.4,3.46,3.09,3.09,0,0,1-4.89-2,11.21,11.21,0,0,1-.09-1.74q0-27.36,0-54.71a8.29,8.29,0,0,1,.22-2.29,3.13,3.13,0,0,1,6,.3,6.83,6.83,0,0,1,.16,1.87Q402.65,230.59,402.64,244.37Z"/><path class="cls-20" d="M415.28,199.69c0,.48,0,1,0,1.45v43.23q0,21,0,42.07v1.31a5.55,5.55,0,0,1-.25,2.13,3,3,0,0,1-3.08,2,3,3,0,0,1-2.81-2.33,8.1,8.1,0,0,1-.21-2.15v-.88q0-42.66,0-85.3a8.58,8.58,0,0,1,.21-2.15,3.19,3.19,0,0,1,3.27-2.33A3.25,3.25,0,0,1,415.28,199.69Z"/><path class="cls-21" d="M428.06,272.22c0,2.22-1.36,3.72-3.11,3.81-1.91.1-3.27-1.5-3.27-3.8q0-27.95,0-55.88c0-2,1-3.42,2.53-3.74a3.13,3.13,0,0,1,3.54,1.9,5.11,5.11,0,0,1,.26,1.83q0,14,0,28C428,253.64,428,262.93,428.06,272.22Z"/><path class="cls-22" d="M440.77,244.36c0,5.12,0,10.25,0,15.38,0,2.68-2.2,4.3-4.43,3.29a3.35,3.35,0,0,1-1.94-3.42c0-6.87,0-13.74,0-20.6,0-3.39,0-6.78,0-10.16,0-2.14,1.29-3.56,3.16-3.56s3.18,1.39,3.19,3.54C440.79,234,440.77,239.18,440.77,244.36Z"/><path class="cls-23" d="M453.49,271.79a9.86,9.86,0,0,1-.05,1.44,3.31,3.31,0,0,1-3.21,2.81,3.2,3.2,0,0,1-3.06-3.09c-.07-2.17,0-4.35,0-6.53V244.21q0-13.71,0-27.43a6.1,6.1,0,0,1,.22-2.14,3,3,0,0,1,3-2.08,3.11,3.11,0,0,1,2.95,2.35,7.8,7.8,0,0,1,.17,1.87Q453.51,244.28,453.49,271.79Z"/><path class="cls-24" d="M466.16,235.8v8.56c0,5.17,0,10.35,0,15.52,0,2.59-2.25,4.21-4.37,3.1a5,5,0,0,1-1.78-2.11,4,4,0,0,1-.2-1.85q0-14.73,0-29.45a9.17,9.17,0,0,1,.13-1.73,3.09,3.09,0,0,1,3.36-2.53,3,3,0,0,1,2.84,2.95C466.2,230.77,466.16,233.29,466.16,235.8Z"/><path class="cls-25" d="M478.88,238.12c0,.1,0,.2,0,.29v6h0c0,2,0,4.06,0,6.09a3.16,3.16,0,1,1-6.32.07c-.06-4.15-.07-8.31,0-12.47a3.17,3.17,0,1,1,6.33.07Z"/><path class="cls-26" d="M491.55,244.37c0,5.17,0,10.35,0,15.52,0,2.59-2.25,4.21-4.37,3.11a5.15,5.15,0,0,1-1.77-2.12,4,4,0,0,1-.21-1.85q0-14.71,0-29.44a9,9,0,0,1,.14-1.73,3.13,3.13,0,0,1,6.2.41c.06,2.51,0,5,0,7.54Z"/><path class="cls-27" d="M504.27,244.37c0,2,0,4.06,0,6.09a3.16,3.16,0,1,1-6.32.08q-.1-6.24,0-12.47a3.17,3.17,0,1,1,6.33.07Z"/><path class="cls-28" d="M517,238.14a2.71,2.71,0,0,1,0,.29v5.94h0c0,2,0,4.06,0,6.09a3.16,3.16,0,1,1-6.32.08c-.06-4.16-.07-8.32,0-12.47a3.17,3.17,0,1,1,6.33.07Z"/><path class="cls-29" d="M529.71,239c0,6.86,0,13.73,0,20.6a3.33,3.33,0,0,1-1.93,3.42c-2.23,1-4.42-.61-4.43-3.29,0-5.13,0-10.26,0-15.38s0-10.35,0-15.53c0-2.15,1.29-3.54,3.18-3.54s3.16,1.42,3.17,3.56C529.72,232.23,529.71,235.62,529.71,239Z"/><path class="cls-30" d="M542.44,216.35v55.88c0,2.3-1.37,3.9-3.27,3.8-1.75-.09-3.13-1.59-3.11-3.81.09-9.29,0-18.58,0-27.87s0-18.67,0-28a5.11,5.11,0,0,1,.26-1.83,3.11,3.11,0,0,1,3.53-1.9C541.47,212.93,542.44,214.34,542.44,216.35Z"/><path class="cls-31" d="M555,199a8.58,8.58,0,0,1,.22,2.15q0,42.57,0,85.13v1.05a8.1,8.1,0,0,1-.21,2.15,3,3,0,0,1-2.81,2.33,2.94,2.94,0,0,1-3.08-2,5.55,5.55,0,0,1-.25-2.13v-1.24q0-21.08,0-42.14V201.14c0-.48,0-1,0-1.45a3.24,3.24,0,0,1,2.85-3A3.18,3.18,0,0,1,555,199Z"/><path class="cls-32" d="M566.92,216.39v55.87c0,2.31-1.37,3.91-3.27,3.81s-3.13-1.59-3.11-3.81c.09-9.29,0-18.58,0-27.87s0-18.67,0-28a5.16,5.16,0,0,1,.26-1.84,3.12,3.12,0,0,1,3.53-1.89C566,213,566.92,214.38,566.92,216.39Z"/><path class="cls-33" d="M578.46,244.38c0,5.12,0,10.25,0,15.37,0,2.69-2.2,4.3-4.43,3.3a3.35,3.35,0,0,1-1.94-3.43c0-6.86,0-13.73,0-20.6,0-3.38,0-6.77,0-10.15,0-2.14,1.3-3.56,3.17-3.56s3.17,1.39,3.18,3.54C578.47,234,578.46,239.2,578.46,244.38Z"/><path class="cls-34" d="M591.14,238.08q.09,6.24,0,12.47a3.16,3.16,0,1,1-6.31-.07c-.05-2,0-4.06,0-6.09h0v-5.95c0-.09,0-.19,0-.29a3.17,3.17,0,1,1,6.33-.07Z"/><path class="cls-35" d="M603.86,238.08q.1,6.24,0,12.47a3.16,3.16,0,1,1-6.32-.07c0-2,0-4.06,0-6.09v-6.24a3.17,3.17,0,1,1,6.33-.07Z"/><path class="cls-36" d="M616.37,259.75c0,2.69-2.2,4.3-4.43,3.3a3.35,3.35,0,0,1-1.94-3.43c0-6.86,0-13.73,0-20.6,0-3.38,0-6.77,0-10.15a4.29,4.29,0,0,1,.26-1.52,57.1,57.1,0,0,0,6.09,2c0,5,0,10,0,15S616.4,254.63,616.37,259.75Z"/><path class="cls-37" d="M628.9,238.08q.11,6.24,0,12.47a3.16,3.16,0,1,1-6.32-.07c0-2,0-4.06,0-6.09v-6.24a3.17,3.17,0,1,1,6.33-.07Z"/><path class="cls-38" d="M641.81,259.75c0,2.69-2.2,4.3-4.43,3.3a3.35,3.35,0,0,1-1.94-3.43c0-6.86,0-13.73,0-20.6v-6.13c2.46.68,4.58,1.37,6.37,2v9.47C641.82,249.5,641.84,254.63,641.81,259.75Z"/><path class="cls-39" d="M654.9,250.49a3.16,3.16,0,1,1-6.32-.07c0-2,0-4.06,0-6.09v-6.24a2.46,2.46,0,0,1,0-.28l6.34,2.72Q655,245.51,654.9,250.49Z"/><path class="cls-40" d="M668.78,246.47c0,1.34,0,2.68,0,4a3.16,3.16,0,1,1-6.32-.07c0-2,0-4.06,0-6.09v-.59Z"/><path d="M415.3,201.14v43.23q0,21,0,42.07v1.31a5.55,5.55,0,0,1-.25,2.13,3,3,0,0,1-3.08,2,3,3,0,0,1-2.81-2.33,8.1,8.1,0,0,1-.21-2.15v-.88q0-42.66,0-85.3a8.58,8.58,0,0,1,.21-2.15,3.19,3.19,0,0,1,3.27-2.33,3.25,3.25,0,0,1,2.86,3C415.31,200.17,415.3,200.66,415.3,201.14Z"/><path d="M428.06,272.22c0,2.22-1.36,3.72-3.11,3.81-1.91.1-3.27-1.5-3.27-3.8q0-27.95,0-55.88c0-2,1-3.42,2.53-3.74a3.13,3.13,0,0,1,3.54,1.9,5.11,5.11,0,0,1,.26,1.83q0,14,0,28C428,253.64,428,262.93,428.06,272.22Z"/><path d="M453.44,273.23a3.31,3.31,0,0,1-3.21,2.81,3.2,3.2,0,0,1-3.06-3.09c-.07-2.17,0-4.35,0-6.53V244.21q0-13.71,0-27.43a6.1,6.1,0,0,1,.22-2.14,3,3,0,0,1,3-2.08,3.11,3.11,0,0,1,2.95,2.35,7.8,7.8,0,0,1,.17,1.87q0,27.5,0,55A9.86,9.86,0,0,1,453.44,273.23Z"/><path d="M351.74,272a5.83,5.83,0,0,1-.53,2.49,2.76,2.76,0,0,1-3,1.49,3,3,0,0,1-2.61-2.38,8.35,8.35,0,0,1-.17-1.87q0-27.44,0-54.86a6.5,6.5,0,0,1,.64-2.89,2.71,2.71,0,0,1,3.24-1.33,3,3,0,0,1,2.39,2.62,12.6,12.6,0,0,1,.07,1.74v27.28C351.76,253.52,351.77,262.76,351.74,272Z"/><path d="M402.65,271.94a3.79,3.79,0,0,1-1.4,3.46,3.09,3.09,0,0,1-4.89-2,11.21,11.21,0,0,1-.09-1.74q0-27.36,0-54.71a8.29,8.29,0,0,1,.22-2.29,3.13,3.13,0,0,1,6,.3,6.83,6.83,0,0,1,.16,1.87q0,13.78,0,27.57T402.65,271.94Z"/><path d="M440.77,244.36c0,5.12,0,10.25,0,15.38,0,2.68-2.2,4.3-4.43,3.29a3.35,3.35,0,0,1-1.94-3.42c0-6.87,0-13.74,0-20.6,0-3.39,0-6.78,0-10.16,0-2.14,1.29-3.56,3.16-3.56s3.18,1.39,3.19,3.54C440.79,234,440.77,239.18,440.77,244.36Z"/><path d="M555.18,201.18q0,42.57,0,85.13v1.05a8.1,8.1,0,0,1-.21,2.15,3,3,0,0,1-2.81,2.33,2.94,2.94,0,0,1-3.08-2,5.55,5.55,0,0,1-.25-2.13v-1.24q0-21.08,0-42.14V201.14c0-.48,0-1,0-1.45a3.24,3.24,0,0,1,2.85-3A3.18,3.18,0,0,1,555,199,8.58,8.58,0,0,1,555.18,201.18Z"/><path d="M542.44,216.35v55.88c0,2.3-1.37,3.9-3.27,3.8-1.75-.09-3.13-1.59-3.11-3.81.09-9.29,0-18.58,0-27.87s0-18.67,0-28a5.11,5.11,0,0,1,.26-1.83,3.11,3.11,0,0,1,3.53-1.9C541.47,212.93,542.44,214.34,542.44,216.35Z"/><path d="M529.71,259.61a3.33,3.33,0,0,1-1.93,3.42c-2.23,1-4.42-.61-4.43-3.29,0-5.13,0-10.26,0-15.38s0-10.35,0-15.53c0-2.15,1.29-3.54,3.18-3.54s3.16,1.42,3.17,3.56c0,3.38,0,6.77,0,10.16C529.71,245.87,529.69,252.74,529.71,259.61Z"/><path d="M339,229q0,15.38,0,30.75a3.26,3.26,0,0,1-2.57,3.54,3.07,3.07,0,0,1-3.43-1.82,5.27,5.27,0,0,1-.3-2c0-5.07,0-10.15,0-15.22s0-10.16,0-15.23c0-2.29,1.23-3.72,3.13-3.73S339,226.7,339,229Z"/><path d="M389.93,229q0,15.3,0,30.61c0,2.21-1.34,3.74-3.2,3.73s-3.15-1.46-3.15-3.73q0-7.62,0-15.24t0-15.38c0-2.3,1.21-3.69,3.15-3.69S389.93,226.74,389.93,229Z"/><path d="M364.45,244.36c0,5.08,0,10.16,0,15.23,0,2.28-1.25,3.74-3.15,3.74s-3.2-1.51-3.2-3.73q0-15.3,0-30.6c0-1.94,1-3.29,2.48-3.64a3.07,3.07,0,0,1,3.5,1.68,4.93,4.93,0,0,1,.36,2C364.46,234.12,364.45,239.24,364.45,244.36Z"/><path d="M466.16,244.36c0,5.17,0,10.35,0,15.52,0,2.59-2.25,4.21-4.37,3.1a5,5,0,0,1-1.78-2.11,4,4,0,0,1-.2-1.85q0-14.73,0-29.45a9.17,9.17,0,0,1,.13-1.73,3.09,3.09,0,0,1,3.36-2.53,3,3,0,0,1,2.84,2.95c.07,2.51,0,5,0,7.54Z"/><path d="M326.35,244.3c0,2,0,4,0,5.94,0,2.15-1.33,3.55-3.22,3.53A3.21,3.21,0,0,1,320,250.3q0-6,0-12a3.17,3.17,0,0,1,3.14-3.44c1.91,0,3.18,1.37,3.2,3.53C326.37,240.33,326.35,242.31,326.35,244.3Z"/><path d="M478.89,244.36h0c0,2,0,4.06,0,6.09a3.16,3.16,0,1,1-6.32.07c-.06-4.15-.07-8.31,0-12.47a3.17,3.17,0,1,1,6.33.07c0,.1,0,.2,0,.29Z"/><path d="M288.18,271.8a8.8,8.8,0,0,1-.06,1.45,3.31,3.31,0,0,1-3.21,2.81,3.21,3.21,0,0,1-3.06-3.1c-.07-2.17,0-4.35,0-6.53q0-11.1,0-22.2,0-13.72,0-27.43a6.05,6.05,0,0,1,.22-2.14,3,3,0,0,1,3-2.08,3.09,3.09,0,0,1,2.95,2.35,7.67,7.67,0,0,1,.16,1.86Q288.19,244.3,288.18,271.8Z"/><path d="M300.84,244.37c0,5.17,0,10.35,0,15.52,0,2.59-2.25,4.21-4.37,3.11a5.25,5.25,0,0,1-1.78-2.12,4.15,4.15,0,0,1-.2-1.85q0-14.71,0-29.44a9,9,0,0,1,.14-1.73,3.08,3.08,0,0,1,3.36-2.54,3,3,0,0,1,2.83,3c.07,2.51,0,5,0,7.54C300.85,238.67,300.84,241.52,300.84,244.37Z"/><path d="M313.55,250.46a3.16,3.16,0,1,1-6.31.08q-.11-6.24,0-12.47a3.17,3.17,0,1,1,6.33.07v6.23h0C313.56,246.4,313.6,248.43,313.55,250.46Z"/><path d="M491.53,259.89c0,2.59-2.25,4.21-4.37,3.11a5.15,5.15,0,0,1-1.77-2.12,4,4,0,0,1-.21-1.85q0-14.71,0-29.44a9,9,0,0,1,.14-1.73,3.13,3.13,0,0,1,6.2.41c.06,2.51,0,5,0,7.54v8.56C491.55,249.54,491.57,254.72,491.53,259.89Z"/><path d="M504.26,250.46a3.16,3.16,0,1,1-6.32.08q-.1-6.24,0-12.47a3.17,3.17,0,1,1,6.33.07v6.23C504.27,246.4,504.3,248.43,504.26,250.46Z"/><path d="M517,244.37h0c0,2,0,4.06,0,6.09a3.16,3.16,0,1,1-6.32.08c-.06-4.16-.07-8.32,0-12.47a3.17,3.17,0,1,1,6.33.07,2.71,2.71,0,0,1,0,.29Z"/><path d="M377.19,244.35c0,2,0,4,0,6a3.18,3.18,0,1,1-6.33.09q0-6.09,0-12.18a3.17,3.17,0,1,1,6.33,0C377.2,240.29,377.19,242.32,377.19,244.35Z"/><path d="M566.92,216.39v55.87c0,2.31-1.37,3.91-3.27,3.81s-3.13-1.59-3.11-3.81c.09-9.29,0-18.58,0-27.87s0-18.67,0-28a5.16,5.16,0,0,1,.26-1.84,3.12,3.12,0,0,1,3.53-1.89C566,213,566.92,214.38,566.92,216.39Z"/><path d="M274.07,229q0,15.38,0,30.75a3.27,3.27,0,0,1-2.57,3.53,3,3,0,0,1-3.43-1.82,5.21,5.21,0,0,1-.3-2c0-5.08,0-10.15,0-15.23s0-10.15,0-15.23c0-2.29,1.22-3.72,3.13-3.73S274.07,226.71,274.07,229Z"/><path d="M261.37,244.31c0,2,0,4,0,5.95,0,2.14-1.33,3.55-3.22,3.53a3.22,3.22,0,0,1-3.13-3.48q0-6,0-12a3.16,3.16,0,0,1,3.14-3.43c1.91,0,3.18,1.36,3.21,3.52C261.39,240.34,261.37,242.33,261.37,244.31Z"/><path d="M235.87,244.39c0,5.17,0,10.34,0,15.52,0,2.58-2.25,4.21-4.37,3.1a5,5,0,0,1-1.78-2.12,4,4,0,0,1-.2-1.84q0-14.73,0-29.45a9.11,9.11,0,0,1,.14-1.73,3.23,3.23,0,0,1,.58-1.32,3.12,3.12,0,0,1,2.78-1.22,2.2,2.2,0,0,1,.37.06,3,3,0,0,1,2.47,2.9c.06,2.51,0,5,0,7.54Z"/><path d="M209.74,259.91c0,2.58-2.25,4.21-4.37,3.1a5.19,5.19,0,0,1-1.78-2.12,4.11,4.11,0,0,1-.2-1.84q0-9.92,0-19.81c3.55-1.37,6.37-2.53,6.37-2.53,0,2.56,0,5.11,0,7.68C209.75,249.56,209.78,254.73,209.74,259.91Z"/><path d="M248.58,250.48a3.16,3.16,0,1,1-6.32.07q-.1-6.24,0-12.47a3.17,3.17,0,1,1,6.33.07v6.24C248.59,246.42,248.62,248.45,248.58,250.48Z"/><path d="M223.14,250.48a3.16,3.16,0,1,1-6.32.07q-.1-6.24,0-12.47a3.17,3.17,0,1,1,6.33.07v6.24C223.15,246.42,223.18,248.45,223.14,250.48Z"/><path d="M195.79,244.39h0c0,2,0,4.06,0,6.09a3.16,3.16,0,1,1-6.32.07q0-3.42,0-6.82l.18-.09c.92.06,3.34-.63,6.21-1.61Z"/><path d="M578.45,259.75c0,2.69-2.2,4.3-4.43,3.3a3.35,3.35,0,0,1-1.94-3.43c0-6.86,0-13.73,0-20.6,0-3.38,0-6.77,0-10.15,0-2.14,1.3-3.56,3.17-3.56s3.17,1.39,3.18,3.54c0,5.18,0,10.35,0,15.53S578.48,254.63,578.45,259.75Z"/><path d="M616.37,259.75c0,2.69-2.2,4.3-4.43,3.3a3.35,3.35,0,0,1-1.94-3.43c0-6.86,0-13.73,0-20.6,0-3.38,0-6.77,0-10.15a4.29,4.29,0,0,1,.26-1.52,57.1,57.1,0,0,0,6.09,2c0,5,0,10,0,15S616.4,254.63,616.37,259.75Z"/><path d="M641.81,259.75c0,2.69-2.2,4.3-4.43,3.3a3.35,3.35,0,0,1-1.94-3.43c0-6.86,0-13.73,0-20.6v-6.13c2.46.68,4.58,1.37,6.37,2v9.47C641.82,249.5,641.84,254.63,641.81,259.75Z"/><path d="M603.86,250.55a3.16,3.16,0,1,1-6.32-.07c0-2,0-4.06,0-6.09v-6.24a3.17,3.17,0,1,1,6.33-.07Q604,244.32,603.86,250.55Z"/><path d="M628.9,250.55a3.16,3.16,0,1,1-6.32-.07c0-2,0-4.06,0-6.09v-6.24a3.17,3.17,0,1,1,6.33-.07Q629,244.32,628.9,250.55Z"/><path d="M654.9,250.49a3.16,3.16,0,1,1-6.32-.07c0-2,0-4.06,0-6.09v-6.24a2.46,2.46,0,0,1,0-.28l6.34,2.72Q655,245.51,654.9,250.49Z"/><path d="M722.84,300.44l-17.06-26.12L686.59,254.1l-17.81-7.63-6.37-2.73-7.48-3.21-6.34-2.72-.05,0a49.81,49.81,0,0,0-6.72-2.88c-1.79-.65-3.91-1.34-6.37-2a106.75,106.75,0,0,0-13-2.7,19.42,19.42,0,0,1-6.09-.86,57.1,57.1,0,0,1-6.09-2c-6.24-2.41-15-6.83-26.75-14.9,0,0-.61-5.29-10.39-9.57l-3.47-3.06s-3.26-3.47-5.91-3.87c0,0-13.65-10.6-20.17-11.42l-8.16-2.65s-9.58-2.24-24.66-1.63l-13.86-.1H479l-10.19,1.12-2.45.41-5.28-.59-5.72,0-2.65.41h-8.76l-19,1.42s-10.39,2.24-20,4.69c-1,0-9.17,1.43-9.17,1.43s-7.34,1.83-11.21,2.44l-6.73,1s-29.34,2.24-42.18,9.38c0,0-3.47,3.67-16.51,4.68l-14.88.21L275,208s-18.54-.41-28.12,10.8l-9.38,5.1-4.1,1.52a2.2,2.2,0,0,0-.37-.06,3.12,3.12,0,0,0-2.78,1.22l-3.75,1.39s-10.4,4.49-16.72,8.77c0,0-2.82,1.16-6.37,2.53-2.41.93-5.16,2-7.59,2.79-2.87,1-5.29,1.67-6.21,1.61l-.18.09L169.2,254.1l-20.59,9.1L77.67,294.5l-13,4.1v-7.34l75.21-37.13q0-10.95-.14-21.92c0-1.94.64-2.55,2.51-2.79,4.48-.6,4-.33,3.91,3.57q-.16,9.1-.34,18.2l3.63-1.79q0-9.5,0-19c0-.9-.35-2,1.32-2.44V248.8l19.39-8.57,20.38-10.47c2.86.21,20.18-6.93,20.18-6.93,6.32-4.28,16.71-8.76,16.71-8.76l11-4.08,9.37-5.09c9.58-11.21,28.13-10.8,28.13-10.8l29.35-1.23,14.87-.2c13.05-1,16.51-4.69,16.51-4.69,12.84-7.13,42.19-9.37,42.19-9.37l6.72-1c3.88-.61,11.21-2.45,11.21-2.45s8.16-1.42,9.17-1.42c9.58-2.45,20-4.69,20-4.69l18.95-1.43h8.76l2.65-.4h5.72l5.29.6,2.45-.41L480,166.27h17.93l13.86.11c15.08-.61,24.66,1.63,24.66,1.63l8.15,2.65c6.52.82,20.18,11.41,20.18,11.41,2.65.41,5.91,3.88,5.91,3.88l3.46,3.05c9.79,4.28,10.4,9.58,10.4,9.58,27.51,19,38.92,17.73,38.92,17.73,16.85,2.45,26.09,7.61,26.09,7.61l38,16.31,19.19,20.21,26.4,40.41Z"/><path d="M668.78,246.47c0,1.34,0,2.68,0,4a3.16,3.16,0,1,1-6.32-.07c0-2,0-4.06,0-6.09v-.59Z"/><path d="M591.13,250.55a3.16,3.16,0,1,1-6.31-.07c-.05-2,0-4.06,0-6.09h0v-5.95c0-.09,0-.19,0-.29a3.17,3.17,0,1,1,6.33-.07Q591.23,244.32,591.13,250.55Z"/><path d="M85.52,236.79a19,19,0,0,1,2-.55,7,7,0,0,1,7.2,2.88,9.34,9.34,0,0,1-1.91,13.26l-.56.41c.3.86.62,1.72.9,2.58a18.28,18.28,0,0,1,1,4.8,7.82,7.82,0,0,1-.27,2.68,4.89,4.89,0,0,1-4.07,3.49,5.75,5.75,0,0,1-6.91-5.85,2.93,2.93,0,0,1,3.06-3,6.64,6.64,0,0,1,2,.26,2.76,2.76,0,0,1,1.77,3.9c-.14.33-.37.62-.52.95a1.85,1.85,0,0,0-.08.48,1.27,1.27,0,0,0,.46.05,3.21,3.21,0,0,0,2.27-3.72,15.18,15.18,0,0,0-1.17-4c-.19-.49-.4-1-.59-1.44-.8.19-1.57.44-2.36.56a11.91,11.91,0,0,1-9.15-1.92,8.44,8.44,0,0,1-3.55-6.9,15.36,15.36,0,0,1,1.08-6.07,36.3,36.3,0,0,1,4.32-8,.51.51,0,0,0,.06-.58A18.54,18.54,0,0,1,78.72,224a9.65,9.65,0,0,1,2.12-6.73,5.47,5.47,0,0,1,3.15-2,2.63,2.63,0,0,1,2.85,1.44,7.61,7.61,0,0,1,.92,3.35,17.81,17.81,0,0,1-1.25,7.46,24.9,24.9,0,0,1-2.58,5,.57.57,0,0,0-.08.45C84.39,234.21,85,235.5,85.52,236.79ZM82.31,235l-.14.17a30,30,0,0,0-2.9,5.87,12.38,12.38,0,0,0-.81,5.49,5.58,5.58,0,0,0,2.45,4.15,7.92,7.92,0,0,0,6.12,1.1c.67-.13,1.31-.36,2-.56l-3.85-9.46A4.07,4.07,0,0,0,84,243.59a6.5,6.5,0,0,0,.08,3.88,2.17,2.17,0,0,1,0,.37,2.33,2.33,0,0,1-.38,0,2.47,2.47,0,0,1-.49-.24,6.43,6.43,0,0,1-2-1.9,4.47,4.47,0,0,1,.08-5.51,23.09,23.09,0,0,1,2-2c.09-.09.22-.25.19-.32C83.13,236.91,82.73,236,82.31,235Zm4.85,5.61,4,9.38a6.17,6.17,0,0,0,2.62-4.4A4.73,4.73,0,0,0,87.16,240.61Zm-5-11.58c.09,0,.12,0,.13-.06a18.61,18.61,0,0,0,3.06-5.81,5,5,0,0,0,0-3.13,1.79,1.79,0,0,0-2.8-1,2.32,2.32,0,0,0-1.08,1.17,7.12,7.12,0,0,0-.46,1.62A11.77,11.77,0,0,0,81.4,226C81.62,227,81.92,228,82.18,229Z"/><path d="M302.18,160.22c0-.21-.1-.42-.13-.63-.16-1.13-.23-2.29-.49-3.4a9,9,0,0,0-5.07-6.13,15.4,15.4,0,0,0-3.73-1.23l-1.42-.27c.08.21.11.35.17.48,1.28,3.1,2.59,6.19,3.83,9.31,1.06,2.64,2.05,5.3,3.06,8a3.31,3.31,0,0,1-.62,3.2,7.78,7.78,0,0,1-5.73,3.39,6.38,6.38,0,0,1-4.78-1.36,3.83,3.83,0,0,1-1-5.29,6.73,6.73,0,0,1,6.09-3.39,19.56,19.56,0,0,1,2.23.22q-4.24-10.86-8.56-21.86c.29.1.52.15.74.25a17,17,0,0,1,1.91,1,29.16,29.16,0,0,0,4.92,2.34,31.73,31.73,0,0,1,5.75,2.85,7.51,7.51,0,0,1,3.08,4.19,15.73,15.73,0,0,1,.69,6.67,5.2,5.2,0,0,1-.32,1.17,2.76,2.76,0,0,1-.42.61Z"/><path d="M68.45,180.16c0-.17-.08-.35-.14-.52-.32-.92-.72-1.81-1-2.74a7.59,7.59,0,0,1,1.44-6.57A12.76,12.76,0,0,1,71.13,168l1-.76c0,.19,0,.31.06.43.24,2.83.45,5.66.72,8.48.23,2.39.51,4.78.79,7.17a2.81,2.81,0,0,0,1.69,2.17,6.6,6.6,0,0,0,5.62.33A5.38,5.38,0,0,0,84,182.91a3.24,3.24,0,0,0-1.27-4.38,5.67,5.67,0,0,0-5.89-.19,17.67,17.67,0,0,0-1.59,1l-2-19.74a6.55,6.55,0,0,0-.46.47,13.65,13.65,0,0,0-1.07,1.46A24.31,24.31,0,0,1,69,165.22a27.42,27.42,0,0,0-3.22,4.36,6.34,6.34,0,0,0-.69,4.35,13.17,13.17,0,0,0,2.06,5.28,4.52,4.52,0,0,0,.69.76,3.19,3.19,0,0,0,.55.29Z"/><path d="M372.92,165.62c-.11-1.21-.21-2.37-.32-3.53q-.57-6.28-1.17-12.56c0-.37.1-.49.44-.58l12.49-3.29,13-3.45a1.18,1.18,0,0,1,.84.12,1.8,1.8,0,0,1,1.11,1.73c.56,5.86,1.17,11.71,1.78,17.57a2.56,2.56,0,0,1-1.29,2.55,5,5,0,0,1-6.39-.54,4.88,4.88,0,0,1-.81-1.15c-.9-1.81-.14-3.59,1.87-4.39a4.71,4.71,0,0,1,4.24.35l.44.26c-.45-4.85-.88-9.62-1.32-14.48l-1.38.35-9.93,2.67c-.33.09-.4.22-.36.54.6,5.77,1.18,11.55,1.78,17.32a2.54,2.54,0,0,1-.83,2.25,5,5,0,0,1-7.2-.58,3.15,3.15,0,0,1,1.58-5.19,4.67,4.67,0,0,1,4.11.43l.4.23c-.07-.84-.14-1.64-.21-2.43l-1.05-11.49c-.06-.58-.06-.58-.62-.43l-10.72,2.87c-.3.08-.39.21-.36.51.48,4.57.94,9.14,1.41,13.71.12,1.17.23,2.35.37,3.52a2.49,2.49,0,0,1-.87,2.28,5.17,5.17,0,0,1-5.82.54,4.58,4.58,0,0,1-1.76-1.84,3,3,0,0,1,1.12-4.09,4.61,4.61,0,0,1,4.74-.14C372.47,165.36,372.66,165.48,372.92,165.62Z"/><path d="M217.77,179.28c-.36-1.75-.7-3.42-1-5.09Q214,161,211.31,147.89c-.24-1.14-.48-2.28-.7-3.42a1.87,1.87,0,0,1,0-.52,2.33,2.33,0,0,1,.53.07c.81.35,1.63.7,2.42,1.1a1,1,0,0,1,.46.6q3,13.67,6,27.35c.86,4,1.67,7.93,2.59,11.88a5.39,5.39,0,0,1-1.35,5.15c-3.68,4.05-11.54,5.28-16.09-.27-2.35-2.87-2.39-6.32-.09-8.83a9.57,9.57,0,0,1,6.71-3.13,10.05,10.05,0,0,1,5.33,1.12C217.31,179.09,217.5,179.16,217.77,179.28Z"/><path d="M170.66,198.28c-1.51.17-2.52-.2-2.6-1.78s1-1.69,2.14-1.73a45.09,45.09,0,0,1,5.81-.05c.7.07,1.32,1,2,1.49-.62.55-1.17,1.47-1.87,1.6A49.71,49.71,0,0,1,170.66,198.28Z"/><path d="M171.1,214.54c.9-3.63,1.79-7.29,2.75-10.94.12-.44.61-.78.93-1.17.27.4.76.8.76,1.2a46.12,46.12,0,0,1-.31,5.76A5.78,5.78,0,0,1,171.1,214.54Z"/><path d="M176.57,211.73c.65-3,1.25-6,2-8.91.1-.38.76-.63,1.16-.94.34.46.94.89,1,1.37C181,206.89,179.31,209.59,176.57,211.73Z"/><path d="M142.32,220.34c-4.12-.32-8.34-.61-12.56-1a10.72,10.72,0,0,1-2.52-.69c-2.77-1-3.64-2.22-3.65-5.18q0-17.26,0-34.51c0-2.85-1.56-4.25-4.15-4.13a37.34,37.34,0,0,1,.71,5.06c.06,11.13.2,22.26,0,33.38-.14,7.39,2.54,12.72,9.68,15.64-8.08-.8-14.83-8.11-15-16-.23-9.87-.25-19.76-.88-29.61-.37-5.83-1.75-11.6-2.68-17.4-.48-3-1.13-6-1.42-9.06-.41-4.28,1.11-7.72,5-9.9a65,65,0,0,1,15.49-5.76c.55,2,1,3.75,1.56,5.55,1,3.65,3.38,5.36,7.21,5.07,4.17-.32,8.34-.74,12.51-1.11.44,0,.87-.06,1.31-.07a1.7,1.7,0,0,1,1.93,1.81c.07,1.19-.7,1.63-1.77,1.71-4.3.34-8.6.68-12.89,1-2.06.18-4.1.44-6.16.65-1.09.11-2.07.44-1.94,1.76s1.13,1.62,2.34,1.51q8.4-.76,16.81-1.49c.81-.07,1.62-.11,2.43-.15,1.09-.06,2.25.17,2.11,1.44-.06.58-1.2,1.39-1.92,1.48-3,.38-6.11.5-9.16.76s-6,.55-8.95.85c-1.14.12-2.47.25-2.38,1.79s1.38,1.67,2.66,1.56c5.92-.53,11.83-1,17.75-1.54.43,0,1-.21,1.29,0a14.74,14.74,0,0,1,1.84,1.44c-.55.54-1.06,1.48-1.67,1.55-3.91.5-7.83.79-11.75,1.18-2.24.23-4.47.49-6.71.77-1.09.13-2.25.35-2.11,1.82s1.3,1.63,2.52,1.5c5.22-.55,10.44-1.11,15.66-1.65a10.74,10.74,0,0,1,3-.15c.77.15,1.9.71,2,1.3.31,1.27-.81,1.56-1.9,1.68-5.78.6-11.56,1.23-17.34,1.85-.31,0-.71-.05-.91.12-.66.53-1.68,1.11-1.74,1.75-.11,1.17.91,1.67,2.07,1.54,1.62-.17,3.22-.42,4.84-.59q6.7-.69,13.43-1.32c1.13-.11,2.51-.26,2.65,1.29s-1.22,1.58-2.37,1.7q-8.58.93-17.14,1.89c-1.16.13-2.43.33-2.22,1.91s1.52,1.54,2.76,1.4l17.33-1.9c.25,0,.56-.17.73-.07.69.4,1.34.87,2,1.32-.56.55-1,1.46-1.68,1.59-1.76.37-3.6.38-5.4.59-4.15.49-8.31,1-12.46,1.52-1.13.14-2.25.46-2,1.89s1.38,1.56,2.61,1.41l16.75-2c.31,0,.62-.07.94-.09,1.08-.08,2.1.1,2.27,1.38s-.85,1.66-1.91,1.78c-2.49.28-5,.5-7.46.8-3.22.39-6.44.83-9.66,1.27-1.13.16-2.45.3-2.25,1.88s1.51,1.57,2.75,1.42l16.75-2c.31,0,.62-.1.93-.1a1.82,1.82,0,0,1,2,1.94c.07,1.18-.66,1.63-1.73,1.75-4.78.57-9.56,1.11-14.33,1.75-2.71.37-2.93.92-2.67,3.56a3.82,3.82,0,0,1-1,2.73c-1.38,1.34-3.09,2.33-4.56,3.59-.48.4-1,1.35-.83,1.78a2.37,2.37,0,0,0,1.76,1c1.74.14,3.5.06,5.25,0a2.36,2.36,0,0,0,2.51-2.26,40.92,40.92,0,0,1,.87-4.41,2.5,2.5,0,0,1,3.3-2c1.48.36,1.23,1.63,1.11,2.61a47.86,47.86,0,0,1-1.06,6.07,8.19,8.19,0,0,1-4.83,6h3.88l0,.38-2,.45,0,.36H153l-1.24,1.37c.48,1.75,1.75,1.72,3.27,1.35s3.07-.55,4.6-.86a5.92,5.92,0,0,0,1.2-.56l-.07-.49-2.95-.2c2.75-4.27,7.43-4.67,12.2-5.74-2.23,3.59-5,6.44-8.71,7.13-8.51,1.59-17.15,2.57-25.77,3.59a10.39,10.39,0,0,1-9.47-4,1.43,1.43,0,0,1-.31-.84,12.47,12.47,0,0,0,13.54,3.51l-4.43-.79,12.7-1.14C146.39,220.67,142.89,223.08,142.32,220.34Z"/><path d="M129.82,139.37c2.81-.93,5.56-2.29,8.45-2.7,5-.71,8.23,1.57,9.71,6.23.42,1.31.92,2.77-.86,3.53-1.41.61-2.68-.11-3.52-1.91-.51-1.07-.91-2.2-1.45-3.25a6.23,6.23,0,0,0-5.12-3.6,11.87,11.87,0,0,0-2.7.37,54.05,54.05,0,0,1,5.39,3.22,4.81,4.81,0,0,1,1.77,2.74,3.38,3.38,0,0,1-1,2.67,1.94,1.94,0,0,1-3-.45,27.47,27.47,0,0,1-1.66-2.48c-1.39-2.32-3.14-4.06-6.18-3.89Z"/><path d="M149.5,219.37a25,25,0,0,0,6-11.81,6.9,6.9,0,0,1,.44-2,6.19,6.19,0,0,1,1.55-1.29c.35.5,1,1,1,1.49a23.65,23.65,0,0,1-1.69,10.44A3.9,3.9,0,0,1,153,219C152,219,151,219.19,149.5,219.37Z"/><path d="M157.08,218.27c3.3-4.14,4.62-8.64,5.35-13.37.07-.45.53-.84.81-1.25.3.4.87.81.86,1.2-.09,3.22-.21,6.45-.49,9.66a3.42,3.42,0,0,1-3,3C159.64,217.74,158.61,218,157.08,218.27Z"/><path d="M143.83,136.19c5.39-1,10.15,2.49,10.49,7.47.05.74-.6,2.11-1.07,2.18a3.2,3.2,0,0,1-2.47-1,11,11,0,0,1-1.35-3C148.4,139.26,146.92,137.18,143.83,136.19Z"/><path d="M165.41,153.78c-1.18,0-2.36,0-3.54,0a1.8,1.8,0,0,1-2.08-1.86c-.11-1.35.75-1.78,1.85-1.79,2.48,0,5,0,7.44.09,1.35,0,2,.93,1.78,2.06-.15.61-1.19,1.26-1.92,1.42a17.3,17.3,0,0,1-3.53.06Z"/><path d="M151.09,135.92c4.54-.26,9,3.62,9.08,7.58a6.38,6.38,0,0,1-.87,2.24c-.81-.43-1.64-.82-2.43-1.28-.18-.11-.26-.42-.35-.65C155.42,140.83,154.33,137.85,151.09,135.92Z"/><path d="M165.29,216.24c.87-3.85,1.72-7.73,2.65-11.59A6.12,6.12,0,0,1,169,203c.32.58.92,1.17.91,1.75a64.29,64.29,0,0,1-.46,7.47A4.37,4.37,0,0,1,165.29,216.24Z"/><path d="M166.54,160.05a19.3,19.3,0,0,1-3.73-.07c-.66-.14-1.18-1-1.77-1.47.58-.47,1.13-1.29,1.73-1.33a62.06,62.06,0,0,1,7.47,0c.58,0,1.11.89,1.66,1.37-.61.48-1.15,1.25-1.82,1.39a18.16,18.16,0,0,1-3.54.06Z"/><path d="M167.69,163.43a23.05,23.05,0,0,1,3.72.06c.56.1,1,.85,1.52,1.31-.47.49-.92,1.38-1.42,1.41a68,68,0,0,1-7.82.09c-.52,0-1-1-1.48-1.56.52-.44,1-1.18,1.57-1.26a25.45,25.45,0,0,1,3.91-.06Z"/><path d="M169,172.52a16.6,16.6,0,0,1-3.64.11c-.7-.14-1.27-.88-1.9-1.35.56-.53,1.08-1.46,1.68-1.51a46.61,46.61,0,0,1,7.09-.07c.62,0,1.19,1,1.78,1.48-.65.45-1.25,1.15-2,1.29A15.25,15.25,0,0,1,169,172.52Z"/><path d="M171.86,191.52a16.15,16.15,0,0,1-3.34-.07c-.62-.13-1.09-.91-1.63-1.41.5-.51,1-1.43,1.51-1.48a45,45,0,0,1,6.87-.13c.59,0,1.12,1,1.68,1.54-.58.45-1.11,1.15-1.76,1.27a16.79,16.79,0,0,1-3.33.06Z"/><path d="M169.65,178.9a17.8,17.8,0,0,1-3.35-.06c-.63-.13-1.15-.84-1.73-1.29.51-.53,1-1.47,1.52-1.51a51.87,51.87,0,0,1,7.27-.06c.55,0,1,1,1.57,1.46-.58.45-1.1,1.18-1.74,1.3a19.86,19.86,0,0,1-3.54.06Z"/><path d="M170.69,185.16a16.25,16.25,0,0,1-3.35-.06c-.61-.13-1.07-.93-1.59-1.43.48-.47.94-1.32,1.46-1.35a60.81,60.81,0,0,1,7.27,0c.51,0,1,.88,1.45,1.35-.51.46-1,1.23-1.52,1.32a22,22,0,0,1-3.72.06Z"/><path d="M158.29,137.21c3.73.44,6.35,2.78,6.89,6.15.11.64-.41,1.38-.64,2.08-.66-.33-1.61-.49-1.94-1-1-1.59-1.66-3.35-2.56-5A19.48,19.48,0,0,0,158.29,137.21Z"/><path d="M165.18,139.23c2.49.33,4.12,2,4.91,4.59.13.46-.25,1.07-.4,1.61-.54-.27-1.32-.4-1.59-.84C167,142.82,166.11,141,165.18,139.23Z"/><path d="M171.18,149.73c2-1.25.18-2.65.24-4l.5-.19a27.76,27.76,0,0,1,1.25,3.59c0,.18-1.08.63-1.66,1Z"/></svg>